<svg xmlns="http://www.w3.org/2000/svg" viewBox="0 0 566.56 407.27"><defs><style>.cls-1{fill:#9e9e9e;}</style></defs><title>Asset 1</title><g id="Layer_2" data-name="Layer 2"><g id="Layer_1-2" data-name="Layer 1"><path class="cls-1" d="M42,84.13H464.94c19.58,0,39.18.3,58.76,0h.83a43.33,43.33,0,0,0,29.7-12.3c7.28-7.28,12.77-19.24,12.3-29.7-1-22.76-18.45-42-42-42H101.62C82,.13,62.44-.17,42.86.13H42a43.33,43.33,0,0,0-29.7,12.3C5,19.72-.44,31.67,0,42.13,1,64.89,18.48,84.13,42,84.13Z"/><path class="cls-1" d="M524.53,161.13H101.62c-19.58,0-39.18-.3-58.76,0H42a43.33,43.33,0,0,0-29.7,12.3C5,180.72-.44,192.67,0,203.13c1,22.76,18.45,42,42,42H464.94c19.58,0,39.18.3,58.76,0h.83a43.33,43.33,0,0,0,29.7-12.3c7.28-7.28,12.77-19.24,12.3-29.7C565.51,180.38,548.07,161.13,524.53,161.13Z"/><path class="cls-1" d="M524.53,323.13H101.62c-19.58,0-39.18-.3-58.76,0H42a43.33,43.33,0,0,0-29.7,12.3C5,342.72-.44,354.67,0,365.13c1,22.76,18.45,42,42,42H464.94c19.58,0,39.18.3,58.76,0h.83a43.33,43.33,0,0,0,29.7-12.3c7.28-7.28,12.77-19.24,12.3-29.7C565.51,342.38,548.07,323.13,524.53,323.13Z"/></g></g></svg>